<?xml version="1.0" encoding="utf-8"?>
<!-- Generator: Adobe Illustrator 16.0.0, SVG Export Plug-In . SVG Version: 6.00 Build 0)  -->
<!DOCTYPE svg PUBLIC "-//W3C//DTD SVG 1.1//EN" "http://www.w3.org/Graphics/SVG/1.1/DTD/svg11.dtd">
<svg version="1.1" id="Calque_1" xmlns="http://www.w3.org/2000/svg" xmlns:xlink="http://www.w3.org/1999/xlink" x="0px" y="0px"
	 width="255.12px" height="85.04px" viewBox="0 0 255.12 85.04" enable-background="new 0 0 255.12 85.04" xml:space="preserve">
<g>
	<g>
		<path fill="none" d="M32.51,45.76c-0.73,0.393-1.145,0.831-1.145,1.252c0,0.422,0.416,0.861,1.148,1.254
			c-0.466-0.38-0.735-0.805-0.735-1.254C31.779,46.563,32.045,46.141,32.51,45.76z"/>
		<path d="M39.326,42.19c-6.31,0-11.067,2.073-11.067,4.821s4.757,4.82,11.067,4.82c0.561,0,1.104-0.021,1.636-0.053l109.094-3.611
			c0.842-0.018,1.51-0.518,1.51-1.129s-0.668-1.111-1.51-1.129L40.988,42.247C40.447,42.214,39.896,42.19,39.326,42.19z
			 M31.365,47.012c0-2.549,4.948-2.928,7.961-2.928c4.168,0,12.619,0.379,12.619,2.928c0,2.547-8.451,2.93-12.619,2.93
			C36.316,49.941,31.365,48.975,31.365,47.012z"/>
	</g>
	<path fill="#010101" d="M107.738,4.438c-0.613-0.994-2.187-0.126-1.588,0.891c6.901,11.713-0.951,21.858-11.762,26.184
		c-0.895-8.047-3.763-16.498-10.944-19.327c-5.588-2.202-12-0.692-15.548,4.199c-4.006,5.524-2.332,12.774,3.24,16.307
		c5.882,3.729,14.195,3.582,21.255,1.553c1.02,12.653-3.221,25.239-13.374,33.587C64.954,79.396,41.122,79.076,27.62,66.918
		c-0.15-0.135-0.285-0.283-0.432-0.422c7.182-5.539,13.51-12.492,18.443-19.74c6.365-9.353,10.442-22.367,0.395-30.742
		c-5.328-4.44-13-6.962-19.823-5.213c-6.969,1.788-10.874,8.608-12.453,15.121c-3.447,14.214,0.721,30.588,10.829,41.195
		c-2.445,1.834-4.981,3.496-7.59,4.926c-0.498,0.273-0.071,1.029,0.431,0.768c2.722-1.426,5.367-3.088,7.916-4.93
		c0.442,0.439,0.892,0.873,1.355,1.289C38.62,79.898,57.599,80.75,71.884,74.73c13.455-5.67,21.866-18.959,22.737-33.275
		c0.143-2.334,0.163-5.065-0.045-7.913c1.618-0.576,3.146-1.244,4.524-1.985C109.298,26.07,114.051,14.667,107.738,4.438z
		 M15.765,27.651c1.232-7.041,5.345-13.559,12.713-15.029c6.583-1.313,14.451,2.646,18.714,7.513
		c7.669,8.758,0.203,21.717-5.369,29.345c-4.282,5.861-9.557,11.533-15.436,16.234C16.656,55.998,13.448,40.892,15.765,27.651z
		 M71.426,30.607c-4.687-3.003-4.441-8.912-1.818-13.181c2.445-3.979,7.858-4.818,12.055-3.673c6.19,1.688,8.698,9.008,9.871,14.568
		c0.278,1.321,0.498,2.648,0.662,3.978C85.147,34.532,77.231,34.328,71.426,30.607z"/>
</g>
<text transform="matrix(1 0 0 1 93.7744 76.8574)" font-family="'StrawberryBlossom'" font-size="25.8015">C’est Mamie qui Tricote !</text>
</svg>
